<mxfile host="app.diagrams.net" modified="2021-02-19T07:23:31.004Z" agent="5.0 (Windows NT 10.0; Win64; x64) AppleWebKit/537.36 (KHTML, like Gecko) Chrome/84.0.4147.105 Safari/537.36" etag="oYj2ISqwiqx5IA6ZMj1t" version="14.2.9" type="github">
  <diagram id="TG882UKHNVCYBNxcvPXh" name="第 1 页">
    <mxGraphModel dx="1422" dy="796" grid="1" gridSize="10" guides="1" tooltips="1" connect="1" arrows="1" fold="1" page="1" pageScale="1" pageWidth="827" pageHeight="1169" math="0" shadow="0">
      <root>
        <mxCell id="0" />
        <mxCell id="1" parent="0" />
        <mxCell id="8iVbaxMeFPb1adZR85db-10" value="" style="rounded=1;whiteSpace=wrap;html=1;dashed=1;strokeColor=#9933FF;" vertex="1" parent="1">
          <mxGeometry x="150" y="100" width="490" height="200" as="geometry" />
        </mxCell>
        <mxCell id="8iVbaxMeFPb1adZR85db-1" value="规则管理" style="rounded=1;whiteSpace=wrap;html=1;fillColor=#dae8fc;strokeColor=#6c8ebf;" vertex="1" parent="1">
          <mxGeometry x="194" y="225" width="120" height="60" as="geometry" />
        </mxCell>
        <mxCell id="8iVbaxMeFPb1adZR85db-2" value="规则执行" style="rounded=1;whiteSpace=wrap;html=1;fillColor=#dae8fc;strokeColor=#6c8ebf;" vertex="1" parent="1">
          <mxGeometry x="487" y="225" width="120" height="60" as="geometry" />
        </mxCell>
        <mxCell id="8iVbaxMeFPb1adZR85db-3" value="存储" style="shape=cylinder3;whiteSpace=wrap;html=1;boundedLbl=1;backgroundOutline=1;size=15;" vertex="1" parent="1">
          <mxGeometry x="378" y="225" width="60" height="60" as="geometry" />
        </mxCell>
        <mxCell id="8iVbaxMeFPb1adZR85db-4" value="规则配置" style="shape=document;whiteSpace=wrap;html=1;boundedLbl=1;fillColor=#FFCCCC;" vertex="1" parent="1">
          <mxGeometry x="190" y="10" width="120" height="80" as="geometry" />
        </mxCell>
        <mxCell id="8iVbaxMeFPb1adZR85db-5" value="" style="endArrow=classic;html=1;" edge="1" parent="1" target="8iVbaxMeFPb1adZR85db-8">
          <mxGeometry width="50" height="50" relative="1" as="geometry">
            <mxPoint x="250" y="82" as="sourcePoint" />
            <mxPoint x="200" y="210" as="targetPoint" />
          </mxGeometry>
        </mxCell>
        <mxCell id="8iVbaxMeFPb1adZR85db-6" value="" style="endArrow=classic;html=1;exitX=1;exitY=0.5;exitDx=0;exitDy=0;" edge="1" parent="1" source="8iVbaxMeFPb1adZR85db-1">
          <mxGeometry width="50" height="50" relative="1" as="geometry">
            <mxPoint x="334" y="254.5" as="sourcePoint" />
            <mxPoint x="374" y="255" as="targetPoint" />
          </mxGeometry>
        </mxCell>
        <mxCell id="8iVbaxMeFPb1adZR85db-7" value="" style="endArrow=classic;html=1;exitX=1;exitY=0.5;exitDx=0;exitDy=0;" edge="1" parent="1">
          <mxGeometry width="50" height="50" relative="1" as="geometry">
            <mxPoint x="438" y="254.5" as="sourcePoint" />
            <mxPoint x="488" y="254.5" as="targetPoint" />
          </mxGeometry>
        </mxCell>
        <mxCell id="8iVbaxMeFPb1adZR85db-8" value="规则加载" style="rounded=1;whiteSpace=wrap;html=1;fillColor=#dae8fc;strokeColor=#6c8ebf;" vertex="1" parent="1">
          <mxGeometry x="190" y="124" width="120" height="60" as="geometry" />
        </mxCell>
        <mxCell id="8iVbaxMeFPb1adZR85db-9" value="" style="endArrow=classic;html=1;" edge="1" parent="1">
          <mxGeometry width="50" height="50" relative="1" as="geometry">
            <mxPoint x="249.5" y="187" as="sourcePoint" />
            <mxPoint x="249.5" y="225" as="targetPoint" />
            <Array as="points">
              <mxPoint x="249.5" y="195" />
            </Array>
          </mxGeometry>
        </mxCell>
        <mxCell id="8iVbaxMeFPb1adZR85db-11" value="业务请求" style="rounded=1;whiteSpace=wrap;html=1;fillColor=#ffe6cc;strokeColor=#d79b00;" vertex="1" parent="1">
          <mxGeometry x="487" y="10" width="120" height="60" as="geometry" />
        </mxCell>
        <mxCell id="8iVbaxMeFPb1adZR85db-13" value="" style="endArrow=classic;startArrow=classic;html=1;entryX=0.5;entryY=1;entryDx=0;entryDy=0;" edge="1" parent="1" source="8iVbaxMeFPb1adZR85db-2" target="8iVbaxMeFPb1adZR85db-11">
          <mxGeometry width="50" height="50" relative="1" as="geometry">
            <mxPoint x="510" y="120" as="sourcePoint" />
            <mxPoint x="560" y="70" as="targetPoint" />
          </mxGeometry>
        </mxCell>
      </root>
    </mxGraphModel>
  </diagram>
</mxfile>
